<?xml version="1.0" encoding="UTF-8"?>
<svg id="Layer_2" data-name="Layer 2" xmlns="http://www.w3.org/2000/svg" viewBox="0 0 224.92 65.52">
  <defs>
    <style>
      .cls-1 {
        fill: #eb0028;
        stroke-width: 0px;
      }
    </style>
  </defs>
  <g id="Layer_1-2" data-name="Layer 1">
    <g>
      <g>
        <path class="cls-1" d="M18.34,16.79H0V0h56.84v16.79h-18.34v48.73h-20.15V16.79Z"/>
        <path class="cls-1" d="M59.97,0h55.17v16.79h-35.01v8.16h35.01v15.6h-35.01v8.17h35.02v16.79h-55.18V0Z"/>
        <path class="cls-1" d="M118.54,0h33.1c21.82,0,29.53,16.15,29.53,32.66,0,20.1-10.63,32.86-33.46,32.86h-29.16V0ZM138.7,48.73h7.89c12.56,0,14.4-10.19,14.4-16.34,0-4.12-1.29-15.59-15.87-15.59h-6.42v31.93Z"/>
      </g>
      <path class="cls-1" d="M210.14,40.43l-6.15-10.21-6,10.21h-14.78l14.03-20.65L183.73.04h14.78l5.47,9.76L209.62.04h14.78l-13.5,19.75,14.03,20.65h-14.78Z"/>
    </g>
  </g>
</svg>